<?xml version="1.0" encoding="iso-8859-1"?>
<!-- Uploaded to: SVG Repo, www.svgrepo.com, Generator: SVG Repo Mixer Tools -->
<svg height="800px" width="800px" version="1.1" id="Layer_1" xmlns="http://www.w3.org/2000/svg" xmlns:xlink="http://www.w3.org/1999/xlink" 
	 viewBox="0 0 512 512" xml:space="preserve">
<polygon style="fill:#FFFFFF;" points="8.533,42.667 503.467,42.667 503.467,384 8.533,384 "/>
<g>
	<path style="fill:#0096E6;" d="M512,392.533H0v-358.4h512V392.533z M17.067,375.467h477.867V51.2H17.067V375.467z"/>
	<path style="fill:#0096E6;" d="M375.467,512c-2.56,0-4.267-0.853-5.973-2.56l-104.96-104.96v81.92c0,5.12-3.413,8.533-8.533,8.533
		c-5.12,0-8.533-3.413-8.533-8.533v-81.92l-104.96,104.96c-3.413,3.413-8.533,3.413-11.947,0s-3.413-8.533,0-11.947l119.467-119.467
		c0.853-0.853,1.707-1.707,2.56-1.707c0.853,0,1.707-0.853,3.413-0.853l0,0l0,0l0,0c0.853,0,2.56,0,3.413,0.853
		c0.853,0,1.707,0.853,2.56,1.707L381.44,497.493c3.413,3.413,3.413,8.533,0,11.947C379.733,511.147,378.027,512,375.467,512z
		 M443.733,358.4c-5.12,0-8.533-3.413-8.533-8.533V281.6c0-5.12,3.413-8.533,8.533-8.533s8.533,3.413,8.533,8.533v68.267
		C452.267,354.987,448.853,358.4,443.733,358.4z M409.6,358.4c-5.12,0-8.533-3.413-8.533-8.533v-102.4
		c0-5.12,3.413-8.533,8.533-8.533s8.533,3.413,8.533,8.533v102.4C418.133,354.987,414.72,358.4,409.6,358.4z M375.467,358.4
		c-5.12,0-8.533-3.413-8.533-8.533V307.2c0-5.12,3.413-8.533,8.533-8.533c5.12,0,8.533,3.413,8.533,8.533v42.667
		C384,354.987,380.587,358.4,375.467,358.4z M341.333,358.4c-5.12,0-8.533-3.413-8.533-8.533v-59.733
		c0-5.12,3.413-8.533,8.533-8.533c5.12,0,8.533,3.413,8.533,8.533v59.733C349.867,354.987,346.453,358.4,341.333,358.4z
		 M307.2,358.4c-5.12,0-8.533-3.413-8.533-8.533v-25.6c0-5.12,3.413-8.533,8.533-8.533c5.12,0,8.533,3.413,8.533,8.533v25.6
		C315.733,354.987,312.32,358.4,307.2,358.4z M196.267,358.4h-128c-5.12,0-8.533-3.413-8.533-8.533c0-5.12,3.413-8.533,8.533-8.533
		h128c5.12,0,8.533,3.413,8.533,8.533C204.8,354.987,201.387,358.4,196.267,358.4z M153.6,324.267H68.267
		c-5.12,0-8.533-3.413-8.533-8.533c0-5.12,3.413-8.533,8.533-8.533H153.6c5.12,0,8.533,3.413,8.533,8.533
		C162.133,320.853,158.72,324.267,153.6,324.267z M256,51.2c-5.12,0-8.533-3.413-8.533-8.533V8.533C247.467,3.413,250.88,0,256,0
		c5.12,0,8.533,3.413,8.533,8.533v34.133C264.533,47.787,261.12,51.2,256,51.2z"/>
</g>
<path style="fill:#D0E8F9;" d="M247.467,166.4c0,49.493-40.107,89.6-89.6,89.6s-89.6-40.107-89.6-89.6s40.107-89.6,89.6-89.6
	S247.467,116.907,247.467,166.4L247.467,166.4z"/>
<g>
	<path style="fill:#0096E6;" d="M157.867,264.533c-53.76,0-98.133-44.373-98.133-98.133s44.373-98.133,98.133-98.133
		S256,112.64,256,166.4S211.627,264.533,157.867,264.533z M157.867,85.333c-44.373,0-81.067,36.693-81.067,81.067
		s36.693,81.067,81.067,81.067s81.067-36.693,81.067-81.067S202.24,85.333,157.867,85.333z"/>
	<path style="fill:#0096E6;" d="M203.947,241.493l-60.587-60.587l0,0v-8.533v-97.28l5.973-5.12h2.56
		c27.307-0.853,54.613,9.387,74.24,29.013s29.867,46.08,29.013,74.24v3.413l-5.973,4.267h-3.413h-78.507l48.64,48.64
		L203.947,241.493z M160.427,163.84h76.8c-0.853-20.48-9.387-38.4-23.893-52.907c-14.507-14.507-32.427-23.04-52.907-23.893V163.84z
		 M399.36,129.707h-68.267V112.64h68.267V129.707z M442.027,87.04h-25.6V69.973h25.6V87.04z M348.16,87.04h-17.067V69.973h17.067
		V87.04z"/>
</g>
</svg>